<svg height="512pt" viewBox="-5 0 512 512" width="512pt" xmlns="http://www.w3.org/2000/svg"><path d="m121 392c-33.085938 0-60 26.914062-60 60s26.914062 60 60 60 60-26.914062 60-60-26.914062-60-60-60zm0 0"/><path d="m381 392c-33.085938 0-60 26.914062-60 60s26.914062 60 60 60 60-26.914062 60-60-26.914062-60-60-60zm0 0"/><path d="m115.335938 119.320312c-2.878907 11.285157-4.335938 22.902344-4.335938 34.679688 0 72.128906 54.832031 131.6875 125 139.195312v-63.925781l-11.707031-5.851562c-7.410157-3.707031-10.414063-12.714844-6.707031-20.125 3.703124-7.410157 12.714843-10.414063 20.121093-6.707031l13.292969 6.644531 13.292969-6.648438c7.410156-3.703125 16.417969-.699219 20.121093 6.707031 3.707032 7.410157.703126 16.421876-6.707031 20.125l-11.707031 5.855469v63.925781c70.167969-7.507812 125-67.066406 125-139.195312 0-11.777344-1.457031-23.394531-4.335938-34.679688 17.964844-11.867187 29.335938-32.273437 29.335938-54.320312 0-35.839844-29.160156-65-65-65-19.546875 0-37.640625 8.65625-49.835938 23.257812-15.953124-6.148437-32.769531-9.257812-50.164062-9.257812s-34.210938 3.109375-50.164062 9.257812c-12.195313-14.601562-30.289063-23.257812-49.835938-23.257812-35.839844 0-65 29.160156-65 65 0 22.046875 11.371094 42.453125 29.335938 54.320312zm190.664062 18.679688c8.285156 0 15 6.714844 15 15s-6.714844 15-15 15-15-6.714844-15-15 6.714844-15 15-15zm-110 0c8.285156 0 15 6.714844 15 15s-6.714844 15-15 15-15-6.714844-15-15 6.714844-15 15-15zm0 0"/><path d="m447 222h-40.210938c-26.28125 59.984375-86.21875 102-155.789062 102s-129.507812-42.015625-155.789062-102h-40.210938c-30.375 0-55 24.625-55 55s24.625 55 55 55h41v33.535156c9.109375-2.636718 18.808594-3.875 28.847656-3.453125 46.410156 1.949219 84.039063 39.503907 86.0625 85.90625 1.078125 24.59375-7.785156 47.15625-22.890625 64.011719h125.960938c-15.105469-16.855469-23.96875-39.417969-22.890625-64.011719 2.027344-46.402343 39.65625-83.957031 86.0625-85.90625 10.039062-.421875 19.738281.816407 28.847656 3.453125v-33.535156h41c30.375 0 55-24.625 55-55s-24.625-55-55-55zm0 0"/></svg>