<?xml version="1.0" encoding="iso-8859-1"?>
<!-- Generator: Adobe Illustrator 19.0.0, SVG Export Plug-In . SVG Version: 6.00 Build 0)  -->
<svg xmlns="http://www.w3.org/2000/svg" xmlns:xlink="http://www.w3.org/1999/xlink" version="1.1" id="Capa_1" x="0px" y="0px" viewBox="0 0 520.002 520.002" style="enable-background:new 0 0 520.002 520.002;" xml:space="preserve" width="512" height="512">
<g id="XMLID_1173_">
	<path id="XMLID_1174_" d="M407.722,265.851c-5.945-17.901-22.85-30.848-42.721-30.848h-37.57c-6.19-17.461-22.873-30-42.43-30h-35   v-85c0-30.327-24.673-55-55-55s-55,24.673-55,55v146.29c-35.321,6.13-64.259,33.522-71.476,69.603   c-6.074,30.372-0.225,61.465,16.472,87.552l57.37,89.641c2.757,4.308,7.519,6.914,12.634,6.914h320c8.284,0,15-6.716,15-15v-145   C490.001,311.932,454.112,272.086,407.722,265.851z"/>
	<path id="XMLID_1175_" d="M76.105,192.684c7.003-4.425,9.095-13.689,4.67-20.693c-13.59-21.512-20.773-46.406-20.773-71.989   c0-27.495,8.21-53.945,23.743-76.49c4.7-6.822,2.98-16.162-3.841-20.862c-6.825-4.701-16.164-2.98-20.862,3.842   c-18.998,27.573-29.04,59.909-29.04,93.511c0,31.263,8.787,61.697,25.41,88.011C59.776,194.922,69.185,197.054,76.105,192.684z"/>
	<path id="XMLID_1176_" d="M110.001,120.002c0-46.869,38.131-85,85-85c46.869,0,85,38.131,85,85v32.69   c9.634-15.537,15-33.692,15-52.69c0-55.14-44.859-100-100-100s-100,44.86-100,100c0,18.999,5.366,37.154,15,52.69V120.002z"/>
	<path id="XMLID_1177_" d="M330.001,100.002c0,25.583-7.184,50.477-20.773,71.989c-4.425,7.004-2.333,16.268,4.67,20.693   c6.919,4.37,16.329,2.238,20.693-4.67c16.623-26.314,25.41-56.748,25.41-88.011c0-33.602-10.042-65.938-29.04-93.511   c-4.699-6.822-14.04-8.543-20.862-3.842c-6.821,4.7-8.541,14.041-3.841,20.862C321.791,46.057,330.001,72.507,330.001,100.002z"/>
</g>















</svg>
