<svg height="512pt" viewBox="-58 0 512 512" width="512pt" xmlns="http://www.w3.org/2000/svg"><path d="m274.988281 8.789062v111.21875h111.226563zm0 0"/><path d="m259.984375 150.011719c-8.28125 0-15-6.71875-15-15.003907v-135.007812h-229.984375c-8.285156 0-15 6.714844-15 15v482c0 8.285156 6.714844 15 15 15h365.007812c8.285157 0 15-6.714844 15-15v-346.988281zm-198.796875-62.003907c7.199219-17.023437 23.792969-28.023437 42.273438-28.023437 25.304687 0 45.890624 20.585937 45.890624 45.890625 0 20.050781-12.929687 37.140625-30.890624 43.367188v10.632812c0 8.285156-6.714844 15-15 15-8.28125 0-15-6.714844-15-15v-23.113281c0-8.285157 6.71875-15 15-15 8.761718 0 15.886718-7.128907 15.886718-15.886719 0-8.761719-7.125-15.890625-15.886718-15.890625-6.402344 0-12.148438 3.8125-14.644532 9.710937-3.226562 7.628907-12.027344 11.199219-19.65625 7.972657-7.632812-3.230469-11.199218-12.03125-7.972656-19.660157zm57.273438 131.871094c0 3.949219-1.597657 7.8125-4.390626 10.601563-2.789062 2.789062-6.660156 4.398437-10.609374 4.398437-3.949219 0-7.808594-1.609375-10.609376-4.398437-2.789062-2.789063-4.390624-6.660157-4.390624-10.601563 0-3.949218 1.601562-7.820312 4.390624-10.609375 2.800782-2.789062 6.660157-4.390625 10.609376-4.390625 3.949218 0 7.8125 1.601563 10.609374 4.390625 2.792969 2.789063 4.390626 6.660157 4.390626 10.609375zm201.546874 231.148438h-242.507812c-8.28125 0-15-6.714844-15-15s6.71875-15 15-15h242.507812c8.28125 0 15 6.714844 15 15s-6.71875 15-15 15zm0-60h-242.507812c-8.28125 0-15-6.71875-15-15 0-8.285156 6.71875-15 15-15h242.507812c8.28125 0 15 6.714844 15 15 0 8.28125-6.71875 15-15 15zm0-60h-242.507812c-8.28125 0-15-6.71875-15-15.003906 0-8.28125 6.71875-15 15-15h242.507812c8.28125 0 15 6.71875 15 15 0 8.285156-6.71875 15.003906-15 15.003906zm0-60.003906h-159c-8.285156 0-15.003906-6.714844-15.003906-15 0-8.285157 6.71875-15 15.003906-15h159c8.285157 0 15 6.714843 15 15 0 8.285156-6.71875 15-15 15zm0-60h-159c-8.285156 0-15.003906-6.714844-15.003906-15 0-8.285157 6.71875-15 15.003906-15h159c8.285157 0 15 6.714843 15 15 0 8.285156-6.71875 15-15 15zm0 0"/></svg>